<svg version="1.1" baseProfile="full" xmlns="http://www.w3.org/2000/svg" xmlns:xlink="http://www.w3.org/1999/xlink" xmlns:ev="http://www.w3.org/2001/xml-events" width="288" height="196"><defs id="SvgjsDefs1074"></defs><g id="main_text" rel="mainfill" name="main_text" feature="main_text" xmlns:name="mainText_mainfill" groupname="main_text" fill="#33b3cc" transform="translate(-3.0832626499496265, 124.36971874120974) scale(2.3717418918808373)" stroke="none" stroke-width="1px"><path d="M13.04 11.3 l-1.8 2.08 c-2.72 -1.76 -6.82 -0.12 -6.82 3.64 c0 3.94 4.34 5.52 6.98 3.52 l1.8 2.06 c-1.26 1.04 -2.88 1.68 -4.64 1.68 c-4 0 -7.26 -3.26 -7.26 -7.26 s3.26 -7.26 7.26 -7.26 c1.68 0 3.24 0.58 4.48 1.54 z M17.240000000000002 15.38 l0.36 0.98 c0.64 -0.84 1.78 -1.2 2.92 -1.2 c0.5 0 1 0.08 1.46 0.24 l-0.98 2.22 c-1.46 -0.64 -2.94 0.24 -3.2 1.62 l0 4.76 l-2.5 0 l0 -8.62 l1.94 0 z M23.8 30.259999999999998 l3.58 -6.8 l-4.2 -8.08 l2.88 0 l2.84 4.78 l2.64 -4.78 l2.8 0 l-7.74 14.88 l-2.8 0 z M38.16 15.38 l0.18 1 c0.82 -0.8 1.96 -1.3 3.2 -1.3 c2.52 0 4.56 2.06 4.56 4.58 c0 2.54 -2.04 4.58 -4.56 4.58 c-1.24 0 -2.38 -0.48 -3.2 -1.3 l0 7.32 l-2.34 0 l0 -14.88 l2.16 0 z M43.46 19.66 c0 -0.62 -0.24 -1.2 -0.66 -1.64 c-0.42 -0.46 -0.98 -0.7 -1.58 -0.7 s-1.18 0.24 -1.6 0.7 c-0.42 0.44 -0.66 1.02 -0.66 1.64 c0 0.64 0.24 1.22 0.66 1.66 s1 0.68 1.6 0.68 s1.16 -0.24 1.58 -0.68 s0.66 -1.02 0.66 -1.66 z M52 15.38 l2 0 l0 2.34 l-2 0 l0 6.28 l-2.54 0 l0 -6.28 l-1.8 0 l0 -2.34 l1.8 0 l0 -3.2 l2.54 0 l0 3.2 z M60.12 15.12 c2.66 0 4.78 2.04 4.78 4.56 c0 2.54 -2.12 4.56 -4.78 4.56 c-2.64 0 -4.76 -2.02 -4.76 -4.56 c0 -2.52 2.12 -4.56 4.76 -4.56 z M61.739999999999995 21.36 c0.42 -0.46 0.64 -1.06 0.64 -1.7 c0 -0.62 -0.22 -1.2 -0.64 -1.64 c-0.44 -0.46 -0.98 -0.7 -1.6 -0.7 c-0.58 0 -1.16 0.24 -1.56 0.7 c-0.46 0.44 -0.68 1.04 -0.68 1.66 c0 0.64 0.22 1.22 0.68 1.68 c0.4 0.44 0.98 0.68 1.56 0.68 c0.62 0 1.16 -0.24 1.6 -0.68 z M68.86 9.12 l0 7.26 c0.82 -0.8 1.96 -1.3 3.2 -1.3 c2.52 0 4.56 2.06 4.56 4.58 c0 2.54 -2.04 4.58 -4.56 4.58 c-1.24 0 -2.38 -0.5 -3.2 -1.3 l0 1.06 l-2.56 0 l0 -14.88 l2.56 0 z M73.32 21.32 c0.42 -0.44 0.66 -1.04 0.66 -1.66 s-0.24 -1.2 -0.66 -1.66 c-0.42 -0.44 -0.98 -0.68 -1.58 -0.68 s-1.18 0.24 -1.6 0.68 c-0.42 0.46 -0.66 1.04 -0.66 1.66 s0.24 1.22 0.66 1.66 s1 0.68 1.6 0.68 s1.16 -0.24 1.58 -0.68 z M87 15.38 l0 4.28 c0 2.54 -2.2 4.58 -4.52 4.58 c-2.34 0 -4.52 -2.04 -4.52 -4.58 l0 -4.28 l2.56 0 l0 4.22 c0 0.6 0.22 1.16 0.54 1.56 c0.4 0.42 0.92 0.66 1.42 0.66 s1.02 -0.24 1.4 -0.66 c0.34 -0.4 0.56 -0.96 0.56 -1.56 l0 -4.22 l2.56 0 z M96.1 24 l0 -1.02 c-0.82 0.8 -1.96 1.3 -3.2 1.3 c-2.52 0 -4.56 -2.04 -4.56 -4.58 c0 -2.52 2.04 -4.58 4.56 -4.58 c1.24 0 2.38 0.5 3.2 1.3 l0 -7.3 l2.36 0 l0 14.88 l-2.36 0 z M90.97999999999999 19.7 c0 0.62 0.24 1.22 0.66 1.66 s0.98 0.68 1.58 0.68 s1.18 -0.24 1.6 -0.68 s0.66 -1.04 0.66 -1.66 s-0.24 -1.2 -0.66 -1.66 c-0.42 -0.44 -1 -0.68 -1.6 -0.68 s-1.16 0.24 -1.58 0.68 c-0.42 0.46 -0.66 1.04 -0.66 1.66 z M107.72 24 l0 -1.02 c-0.82 0.8 -1.96 1.3 -3.2 1.3 c-2.52 0 -4.56 -2.04 -4.56 -4.58 c0 -2.52 2.04 -4.58 4.56 -4.58 c1.24 0 2.38 0.5 3.2 1.3 l0 -7.3 l2.36 0 l0 14.88 l-2.36 0 z M102.6 19.7 c0 0.62 0.24 1.22 0.66 1.66 s0.98 0.68 1.58 0.68 s1.18 -0.24 1.6 -0.68 s0.66 -1.04 0.66 -1.66 s-0.24 -1.2 -0.66 -1.66 c-0.42 -0.44 -1 -0.68 -1.6 -0.68 s-1.16 0.24 -1.58 0.68 c-0.42 0.46 -0.66 1.04 -0.66 1.66 z M112 30.259999999999998 l3.58 -6.8 l-4.2 -8.08 l2.88 0 l2.84 4.78 l2.64 -4.78 l2.8 0 l-7.74 14.88 l-2.8 0 z" stroke="none" fill="#33b3cc" stroke-width="1px"></path></g><g id="SvgjsG1076" rel="mainfill" name="symbol" feature="symbol" xmlns:name="symbol_mainfill" fill="#33b3cc" transform="translate(79.64111363636364, 3.1998771239194) scale(5.358886363636364)" stroke="none" stroke-width="1px"><title stroke="none" fill="#33b3cc" stroke-width="1px">finance_016-chart-money-report-analystic</title><desc stroke="none" fill="#33b3cc" stroke-width="1px">Created with Sketch.</desc><g stroke="none" stroke-width="1px" fill="none" fill-rule="evenodd"><g transform="translate(-285.000000, -92.000000)" fill="#33b3cc" stroke="none" stroke-width="1px"><g transform="translate(286.000000, 94.000000)" stroke="none" fill="#33b3cc" stroke-width="1px"><rect x="0" y="19" width="22" height="1" stroke="none" fill="#33b3cc" stroke-width="1px"></rect><rect x="3" y="16" width="1" height="2" stroke="none" fill="#33b3cc" stroke-width="1px"></rect><rect x="8" y="13" width="1" height="5" stroke="none" fill="#33b3cc" stroke-width="1px"></rect><rect x="13" y="9" width="1" height="9" stroke="none" fill="#33b3cc" stroke-width="1px"></rect><rect x="18" y="4" width="1" height="14" stroke="none" fill="#33b3cc" stroke-width="1px"></rect><polygon points="15.0222799 0.20197388 16.5852044 3.88399329 15.6646996 4.27472442 14.4925062 1.51320986 11.7309916 2.68540325 11.3402605 1.76489839" stroke="none" fill="#33b3cc" stroke-width="1px"></polygon><path d="M3.23176407,12.8126793 C3.71053388,12.661981 4.24231045,12.4654692 4.81391655,12.2177098 C6.44317659,11.5115162 8.07141437,10.5352244 9.59178997,9.24467769 C11.7939051,7.37544721 13.5784569,5.00419786 14.7936887,2.07561056 L14.9853226,1.61379194 L14.0616854,1.23052409 L13.8700515,1.69234271 C12.7177006,4.46939317 11.0294996,6.71261495 8.9446577,8.48229994 C7.50393537,9.70523424 5.95956822,10.6312372 4.41622335,11.3001913 C3.87741773,11.5337336 3.37809769,11.7182514 2.93152441,11.8588155 C2.66749087,11.9419231 2.48252014,11.9913637 2.38989601,12.0122735 L1.90216954,12.1223775 L2.12237752,13.0978305 L2.61010399,12.9877265 C2.72898686,12.9608887 2.94059174,12.9043292 3.23176407,12.8126793 Z" stroke="none" fill="#33b3cc" stroke-width="1px"></path><path d="M5.00362471,8.11411133 C5.52097567,7.9889806 5.98316519,7.69475906 6.22772991,7.17785669 C6.7275808,6.12139154 6.22527425,5.37645442 5.15655909,4.8184663 C5.00292361,4.7382515 5.04868088,4.75971785 4.61267468,4.55861461 C4.20867098,4.37245422 4.24363486,4.38885663 4.11155489,4.31972505 C3.46250532,3.98000798 3.28277852,3.71193817 3.48812506,3.27792581 C3.74042405,2.74467661 4.89404516,2.77655606 5.29900064,3.06374747 L5.70684752,3.35298944 L6.28533147,2.53729568 L5.87748458,2.2480537 C5.6472696,2.08478695 5.34023801,1.96240535 5.00362471,1.89648976 L5.00362471,1 L4.00362471,1 L4.00362471,1.87503833 C3.40931053,1.96936443 2.859184,2.26903958 2.58419533,2.8502448 C2.08554538,3.9041717 2.58529245,4.64956473 3.64782778,5.20570313 C3.80250057,5.28665995 3.76559877,5.26934842 4.19400916,5.4667551 C4.60532761,5.65647141 4.56216559,5.63622258 4.69373388,5.70491586 C5.34848109,6.04676669 5.52955365,6.31530325 5.32380018,6.75017568 C5.07150119,7.28342489 3.91788008,7.25154543 3.5129246,6.96435402 L3.10507772,6.67511205 L2.52659377,7.49080582 L2.93444066,7.78004779 C3.20852393,7.9744256 3.59148843,8.11085208 4.00362471,8.16303433 L4.00362471,9 L5.00362471,9 L5.00362471,8.11411133 Z" stroke="none" fill="#33b3cc" stroke-width="1px"></path></g></g></g></g></svg>
